{
  "accessors": [
    {
      "bufferView": 2,
      "componentType": 5126,
      "count": 65532,
      "max": [
        1006.1687622070313,
        1157.552490234375,
        171.9863739013672
      ],
      "min": [
        -1324.6298828125,
        -1170.6201171875,
        -107.34732055664063
      ],
      "type": "VEC3"
    },
    {
      "bufferView": 2,
      "byteOffset": 786384,
      "componentType": 5126,
      "count": 65532,
      "max": [
        0.9999998807907104,
        1.0,
        1.0
      ],
      "min": [
        -0.9999999403953552,
        -1.0,
        -1.0
      ],
      "type": "VEC3"
    },
    {
      "bufferView": 3,
      "componentType": 5126,
      "count": 65532,
      "max": [
        1.0,
        0.7019608020782471,
        0.6901960968971252,
        1.0
      ],
      "min": [
        0.03529411926865578,
        0.0117647061124444,
        0.003921568859368563,
        0.9960784316062927
      ],
      "type": "VEC4"
    },
    {
      "bufferView": 1,
      "componentType": 5126,
      "count": 65532,
      "max": [
        0.9960645437240601,
        1.031982421875
      ],
      "min": [
        -0.14220282435417175,
        -0.10623796284198761
      ],
      "type": "VEC2"
    },
    {
      "bufferView": 0,
      "componentType": 5125,
      "count": 101748,
      "type": "SCALAR"
    },
    {
      "bufferView": 2,
      "byteOffset": 1572768,
      "componentType": 5126,
      "count": 65533,
      "max": [
        641.1664428710938,
        454.28363037109375,
        100.73786926269531
      ],
      "min": [
        -862.7952270507813,
        -501.05340576171875,
        -36.343963623046875
      ],
      "type": "VEC3"
    },
    {
      "bufferView": 2,
      "byteOffset": 2359164,
      "componentType": 5126,
      "count": 65533,
      "max": [
        1.0,
        1.0,
        1.0
      ],
      "min": [
        -1.0,
        -1.0,
        -1.0
      ],
      "type": "VEC3"
    },
    {
      "bufferView": 3,
      "byteOffset": 1048512,
      "componentType": 5126,
      "count": 65533,
      "max": [
        1.0,
        0.7019608020782471,
        0.6901960968971252,
        1.0
      ],
      "min": [
        0.09019608050584793,
        0.0313725508749485,
        0.007843137718737125,
        1.0
      ],
      "type": "VEC4"
    },
    {
      "bufferView": 1,
      "byteOffset": 524256,
      "componentType": 5126,
      "count": 65533,
      "max": [
        1.0,
        1.00674569606781
      ],
      "min": [
        -0.0001298157003475353,
        -0.004733846988528967
      ],
      "type": "VEC2"
    },
    {
      "bufferView": 0,
      "byteOffset": 406992,
      "componentType": 5125,
      "count": 69549,
      "type": "SCALAR"
    },
    {
      "bufferView": 2,
      "byteOffset": 3145560,
      "componentType": 5126,
      "count": 65533,
      "max": [
        245.67620849609375,
        366.0020446777344,
        60.28003692626953
      ],
      "min": [
        -621.7990112304688,
        -217.32110595703125,
        -35.32339859008789
      ],
      "type": "VEC3"
    },
    {
      "bufferView": 2,
      "byteOffset": 3931956,
      "componentType": 5126,
      "count": 65533,
      "max": [
        0.9999996423721313,
        0.999753475189209,
        0.9999982714653015
      ],
      "min": [
        -0.9999996423721313,
        -0.9999023675918579,
        -0.9999985098838806
      ],
      "type": "VEC3"
    },
    {
      "bufferView": 3,
      "byteOffset": 2097040,
      "componentType": 5126,
      "count": 65533,
      "max": [
        1.0,
        0.7019608020782471,
        0.6901960968971252,
        1.0
      ],
      "min": [
        0.0,
        0.0,
        0.0,
        0.0
      ],
      "type": "VEC4"
    },
    {
      "bufferView": 1,
      "byteOffset": 1048520,
      "componentType": 5126,
      "count": 65533,
      "max": [
        1.0,
        1.0224289894104004
      ],
      "min": [
        -0.31167712807655334,
        -0.03778385743498802
      ],
      "type": "VEC2"
    },
    {
      "bufferView": 0,
      "byteOffset": 685188,
      "componentType": 5125,
      "count": 93297,
      "type": "SCALAR"
    },
    {
      "bufferView": 2,
      "byteOffset": 4718352,
      "componentType": 5126,
      "count": 6509,
      "max": [
        117.85716247558594,
        750.9100341796875,
        95.2748031616211
      ],
      "min": [
        -465.412841796875,
        -10.118188858032227,
        -9.874353408813477
      ],
      "type": "VEC3"
    },
    {
      "bufferView": 2,
      "byteOffset": 4796460,
      "componentType": 5126,
      "count": 6509,
      "max": [
        0.9987754225730896,
        0.9983204007148743,
        0.9988727569580078
      ],
      "min": [
        -0.9987651705741882,
        -0.9981393218040466,
        -0.9988724589347839
      ],
      "type": "VEC3"
    },
    {
      "bufferView": 3,
      "byteOffset": 3145568,
      "componentType": 5126,
      "count": 6509,
      "max": [
        1.0,
        0.7019608020782471,
        0.6901960968971252,
        1.0
      ],
      "min": [
        0.09019608050584793,
        0.0117647061124444,
        0.0,
        1.0
      ],
      "type": "VEC4"
    },
    {
      "bufferView": 1,
      "byteOffset": 1572784,
      "componentType": 5126,
      "count": 6509,
      "max": [
        1.3480879068374634,
        1.43667733669281
      ],
      "min": [
        -0.31167712807655334,
        -0.1866772621870041
      ],
      "type": "VEC2"
    },
    {
      "bufferView": 0,
      "byteOffset": 1058376,
      "componentType": 5125,
      "count": 9759,
      "type": "SCALAR"
    },
    {
      "bufferView": 2,
      "byteOffset": 4874568,
      "componentType": 5126,
      "count": 65534,
      "max": [
        331.59564208984375,
        385.9121398925781,
        62.0245246887207
      ],
      "min": [
        -769.1204833984375,
        -339.7352294921875,
        -28.891321182250977
      ],
      "type": "VEC3"
    },
    {
      "bufferView": 2,
      "byteOffset": 5660976,
      "componentType": 5126,
      "count": 65534,
      "max": [
        1.0,
        0.999937117099762,
        1.0
      ],
      "min": [
        -1.0,
        -1.0,
        -0.9999943375587463
      ],
      "type": "VEC3"
    },
    {
      "bufferView": 1,
      "byteOffset": 1624856,
      "componentType": 5126,
      "count": 65534,
      "max": [
        2.1151883602142334,
        1.0714598894119263
      ],
      "min": [
        -1.2326433658599854,
        -0.4575291872024536
      ],
      "type": "VEC2"
    },
    {
      "bufferView": 1,
      "byteOffset": 2149128,
      "componentType": 5126,
      "count": 65534,
      "max": [
        0.699949324131012,
        0.6282688975334167
      ],
      "min": [
        0.2212851643562317,
        0.30613815784454346
      ],
      "type": "VEC2"
    },
    {
      "bufferView": 0,
      "byteOffset": 1097412,
      "componentType": 5125,
      "count": 209055,
      "type": "SCALAR"
    },
    {
      "bufferView": 2,
      "byteOffset": 6447384,
      "componentType": 5126,
      "count": 14962,
      "max": [
        367.6922912597656,
        392.8934631347656,
        37.264373779296875
      ],
      "min": [
        -591.2301635742188,
        -171.476318359375,
        -11.698413848876953
      ],
      "type": "VEC3"
    },
    {
      "bufferView": 2,
      "byteOffset": 6626928,
      "componentType": 5126,
      "count": 14962,
      "max": [
        1.0,
        0.999851405620575,
        0.9998123049736023
      ],
      "min": [
        -0.9999854564666748,
        -0.999851405620575,
        -0.9998123645782471
      ],
      "type": "VEC3"
    },
    {
      "bufferView": 1,
      "byteOffset": 2673400,
      "componentType": 5126,
      "count": 14962,
      "max": [
        2.1151883602142334,
        1.0714598894119263
      ],
      "min": [
        -1.2326433658599854,
        -0.4575291872024536
      ],
      "type": "VEC2"
    },
    {
      "bufferView": 1,
      "byteOffset": 2793096,
      "componentType": 5126,
      "count": 14962,
      "max": [
        0.7180490493774414,
        0.6273256540298462
      ],
      "min": [
        0.2963598072528839,
        0.37764811515808105
      ],
      "type": "VEC2"
    },
    {
      "bufferView": 0,
      "byteOffset": 1933632,
      "componentType": 5125,
      "count": 49122,
      "type": "SCALAR"
    }
  ],
  "asset": {
    "extras": {
      "author": "Powerbyte7 (https://sketchfab.com/Powerbyte7)",
      "license": "CC-BY-NC-SA-4.0 (http://creativecommons.org/licenses/by-nc-sa/4.0/)",
      "source": "https://sketchfab.com/3d-models/possum-springs-bd755222c78a443398e521fc7b7fd9ea",
      "title": "Possum Springs"
    },
    "generator": "Sketchfab-15.50.0",
    "version": "2.0"
  },
  "bufferViews": [
    {
      "buffer": 0,
      "byteLength": 2130120,
      "name": "floatBufferViews",
      "target": 34963
    },
    {
      "buffer": 0,
      "byteLength": 2912792,
      "byteOffset": 2130120,
      "byteStride": 8,
      "name": "floatBufferViews",
      "target": 34962
    },
    {
      "buffer": 0,
      "byteLength": 6806472,
      "byteOffset": 5042912,
      "byteStride": 12,
      "name": "floatBufferViews",
      "target": 34962
    },
    {
      "buffer": 0,
      "byteLength": 3249712,
      "byteOffset": 11849384,
      "byteStride": 16,
      "name": "floatBufferViews",
      "target": 34962
    }
  ],
  "buffers": [
    {
      "byteLength": 15099096,
      "uri": "scene.bin"
    }
  ],
  "extensionsUsed": [
    "KHR_materials_specular"
  ],
  "images": [
    {
      "uri": "textures/Atlas_baseColor.png"
    },
    {
      "uri": "textures/Triplanar_baseColor.png"
    }
  ],
  "materials": [
    {
      "name": "Atlas",
      "pbrMetallicRoughness": {
        "baseColorTexture": {
          "index": 0
        },
        "metallicFactor": 0.0
      }
    },
    {
      "extensions": {
        "KHR_materials_specular": {
          "specularColorFactor": [
            1.0,
            1.0,
            1.0
          ],
          "specularFactor": 0.0
        }
      },
      "name": "Triplanar",
      "pbrMetallicRoughness": {
        "baseColorTexture": {
          "index": 1
        },
        "metallicFactor": 0.0,
        "roughnessFactor": 0.8040408205773457
      }
    }
  ],
  "meshes": [
    {
      "name": "Cube.111_Atlas_0",
      "primitives": [
        {
          "attributes": {
            "COLOR_0": 2,
            "NORMAL": 1,
            "POSITION": 0,
            "TEXCOORD_0": 3
          },
          "indices": 4,
          "material": 0,
          "mode": 4
        }
      ]
    },
    {
      "name": "Cube.111_Atlas_0",
      "primitives": [
        {
          "attributes": {
            "COLOR_0": 7,
            "NORMAL": 6,
            "POSITION": 5,
            "TEXCOORD_0": 8
          },
          "indices": 9,
          "material": 0,
          "mode": 4
        }
      ]
    },
    {
      "name": "Cube.111_Atlas_0",
      "primitives": [
        {
          "attributes": {
            "COLOR_0": 12,
            "NORMAL": 11,
            "POSITION": 10,
            "TEXCOORD_0": 13
          },
          "indices": 14,
          "material": 0,
          "mode": 4
        }
      ]
    },
    {
      "name": "Cube.111_Atlas_0",
      "primitives": [
        {
          "attributes": {
            "COLOR_0": 17,
            "NORMAL": 16,
            "POSITION": 15,
            "TEXCOORD_0": 18
          },
          "indices": 19,
          "material": 0,
          "mode": 4
        }
      ]
    },
    {
      "name": "Cube.001_Triplanar_0",
      "primitives": [
        {
          "attributes": {
            "NORMAL": 21,
            "POSITION": 20,
            "TEXCOORD_0": 22,
            "TEXCOORD_1": 23
          },
          "indices": 24,
          "material": 1,
          "mode": 4
        }
      ]
    },
    {
      "name": "Cube.001_Triplanar_0",
      "primitives": [
        {
          "attributes": {
            "NORMAL": 26,
            "POSITION": 25,
            "TEXCOORD_0": 27,
            "TEXCOORD_1": 28
          },
          "indices": 29,
          "material": 1,
          "mode": 4
        }
      ]
    }
  ],
  "nodes": [
    {
      "children": [
        1
      ],
      "matrix": [
        1.0,
        0.0,
        0.0,
        0.0,
        0.0,
        2.220446049250313e-16,
        -1.0,
        0.0,
        0.0,
        1.0,
        2.220446049250313e-16,
        0.0,
        0.0,
        0.0,
        0.0,
        1.0
      ],
      "name": "Sketchfab_model"
    },
    {
      "children": [
        2
      ],
      "matrix": [
        0.009999999776482582,
        0.0,
        0.0,
        0.0,
        0.0,
        0.0,
        0.009999999776482582,
        0.0,
        0.0,
        -0.009999999776482582,
        0.0,
        0.0,
        0.0,
        0.0,
        0.0,
        1.0
      ],
      "name": "39a8f0de513c4e07b393bdc70638c533.fbx"
    },
    {
      "children": [
        3,
        8
      ],
      "name": "RootNode"
    },
    {
      "children": [
        4,
        5,
        6,
        7
      ],
      "matrix": [
        99.8756238225419,
        -0.04557048127959394,
        4.985748628775494,
        0.0,
        4.982286666644907,
        4.74805744982816,
        -99.76287507958888,
        0.0,
        -0.19126380147842204,
        99.88720573899552,
        4.744422811451998,
        0.0,
        0.0,
        0.0,
        0.0,
        1.0
      ],
      "name": "Cube.111"
    },
    {
      "mesh": 0,
      "name": "Cube.111_Atlas_0"
    },
    {
      "mesh": 1,
      "name": "Cube.111_Atlas_0"
    },
    {
      "mesh": 2,
      "name": "Cube.111_Atlas_0"
    },
    {
      "mesh": 3,
      "name": "Cube.111_Atlas_0"
    },
    {
      "children": [
        9,
        10
      ],
      "matrix": [
        99.8756238225419,
        -0.04557048127959394,
        4.985748628775494,
        0.0,
        4.982286666644907,
        4.74805744982816,
        -99.76287507958888,
        0.0,
        -0.19126380147842204,
        99.88720573899552,
        4.744422811451998,
        0.0,
        0.0,
        0.0,
        0.0,
        1.0
      ],
      "name": "Cube.001"
    },
    {
      "mesh": 4,
      "name": "Cube.001_Triplanar_0"
    },
    {
      "mesh": 5,
      "name": "Cube.001_Triplanar_0"
    }
  ],
  "samplers": [
    {
      "magFilter": 9728,
      "minFilter": 9728,
      "wrapS": 10497,
      "wrapT": 10497
    },
    {
      "magFilter": 9729,
      "minFilter": 9987,
      "wrapS": 10497,
      "wrapT": 10497
    }
  ],
  "scene": 0,
  "scenes": [
    {
      "name": "Sketchfab_Scene",
      "nodes": [
        0
      ]
    }
  ],
  "textures": [
    {
      "sampler": 0,
      "source": 0
    },
    {
      "sampler": 1,
      "source": 1
    }
  ]
}
