{
  "accessors": [
    {
      "bufferView": 2,
      "componentType": 5126,
      "count": 20414,
      "max": [
        312.55859375,
        415.25,
        278.00128173828125
      ],
      "min": [
        -150.1640625,
        -200.943359375,
        -0.0004825592041015625
      ],
      "type": "VEC3"
    },
    {
      "bufferView": 2,
      "byteOffset": 244968,
      "componentType": 5126,
      "count": 20414,
      "max": [
        1.0,
        1.0,
        1.0
      ],
      "min": [
        -1.0,
        -1.0,
        -1.0
      ],
      "type": "VEC3"
    },
    {
      "bufferView": 1,
      "componentType": 5126,
      "count": 20414,
      "max": [
        1.0,
        0.990860641002655
      ],
      "min": [
        0.0,
        -1.170006610042365e-17
      ],
      "type": "VEC2"
    },
    {
      "bufferView": 1,
      "byteOffset": 163312,
      "componentType": 5126,
      "count": 20414,
      "max": [
        312.55859375,
        415.25
      ],
      "min": [
        -150.1640625,
        -200.943359375
      ],
      "type": "VEC2"
    },
    {
      "bufferView": 1,
      "byteOffset": 326624,
      "componentType": 5126,
      "count": 20414,
      "max": [
        307.5546875,
        399.25
      ],
      "min": [
        -149.57408142089844,
        -200.943359375
      ],
      "type": "VEC2"
    },
    {
      "bufferView": 0,
      "componentType": 5125,
      "count": 59562,
      "type": "SCALAR"
    },
    {
      "bufferView": 2,
      "byteOffset": 489936,
      "componentType": 5126,
      "count": 8,
      "max": [
        90.0,
        5.5,
        129.99998474121094
      ],
      "min": [
        -90.0,
        1.5,
        20.001602172851563
      ],
      "type": "VEC3"
    },
    {
      "bufferView": 2,
      "byteOffset": 490032,
      "componentType": 5126,
      "count": 8,
      "max": [
        0.0,
        -1.0,
        0.0
      ],
      "min": [
        0.0,
        -1.0,
        0.0
      ],
      "type": "VEC3"
    },
    {
      "bufferView": 1,
      "byteOffset": 489936,
      "componentType": 5126,
      "count": 8,
      "max": [
        1.0,
        1.0
      ],
      "min": [
        0.0,
        0.0
      ],
      "type": "VEC2"
    },
    {
      "bufferView": 0,
      "byteOffset": 238248,
      "componentType": 5125,
      "count": 12,
      "type": "SCALAR"
    },
    {
      "bufferView": 2,
      "byteOffset": 490128,
      "componentType": 5126,
      "count": 4,
      "max": [
        45.01042175292969,
        27.404296875,
        267.0
      ],
      "min": [
        -45.01042175292969,
        27.404296875,
        10.0
      ],
      "type": "VEC3"
    },
    {
      "bufferView": 2,
      "byteOffset": 490176,
      "componentType": 5126,
      "count": 4,
      "max": [
        0.0,
        1.0,
        0.0
      ],
      "min": [
        0.0,
        1.0,
        0.0
      ],
      "type": "VEC3"
    },
    {
      "bufferView": 1,
      "byteOffset": 490000,
      "componentType": 5126,
      "count": 4,
      "max": [
        0.6666666865348816,
        1.0
      ],
      "min": [
        0.3333333134651184,
        0.18529731035232544
      ],
      "type": "VEC2"
    },
    {
      "bufferView": 0,
      "byteOffset": 238296,
      "componentType": 5125,
      "count": 6,
      "type": "SCALAR"
    },
    {
      "bufferView": 2,
      "byteOffset": 490224,
      "componentType": 5126,
      "count": 60,
      "max": [
        -76.34439849853516,
        348.490234375,
        210.0
      ],
      "min": [
        -78.44841766357422,
        298.57940673828125,
        96.29864501953125
      ],
      "type": "VEC3"
    },
    {
      "bufferView": 2,
      "byteOffset": 490944,
      "componentType": 5126,
      "count": 60,
      "max": [
        1.0,
        1.0,
        1.0
      ],
      "min": [
        -0.0006138391909189522,
        -1.0,
        -1.0
      ],
      "type": "VEC3"
    },
    {
      "bufferView": 1,
      "byteOffset": 490032,
      "componentType": 5126,
      "count": 60,
      "max": [
        10632549.0,
        0.009768021292984486
      ],
      "min": [
        0.0,
        0.0
      ],
      "type": "VEC2"
    },
    {
      "bufferView": 0,
      "byteOffset": 238320,
      "componentType": 5125,
      "count": 102,
      "type": "SCALAR"
    },
    {
      "bufferView": 2,
      "byteOffset": 491664,
      "componentType": 5126,
      "count": 56,
      "max": [
        436.79669189453125,
        -17.228700637817383,
        -0.6598725318908691
      ],
      "min": [
        114.21502685546875,
        -434.30645751953125,
        -0.6598725318908691
      ],
      "type": "VEC3"
    },
    {
      "bufferView": 2,
      "byteOffset": 492336,
      "componentType": 5126,
      "count": 56,
      "max": [
        0.0,
        0.0,
        -1.0
      ],
      "min": [
        0.0,
        0.0,
        -1.0
      ],
      "type": "VEC3"
    },
    {
      "bufferView": 1,
      "byteOffset": 490512,
      "componentType": 5126,
      "count": 56,
      "max": [
        0.875,
        1.0
      ],
      "min": [
        3.794549385816026e-08,
        1.0
      ],
      "type": "VEC2"
    },
    {
      "bufferView": 0,
      "byteOffset": 238728,
      "componentType": 5125,
      "count": 126,
      "type": "SCALAR"
    },
    {
      "bufferView": 2,
      "byteOffset": 493008,
      "componentType": 5126,
      "count": 348,
      "max": [
        75.34211730957031,
        -80.21843719482422,
        123.53640747070313
      ],
      "min": [
        65.51725769042969,
        -400.8304138183594,
        108.63019561767578
      ],
      "type": "VEC3"
    },
    {
      "bufferView": 2,
      "byteOffset": 497184,
      "componentType": 5126,
      "count": 348,
      "max": [
        0.9999983906745911,
        0.9999983906745911,
        1.0
      ],
      "min": [
        -0.9999983906745911,
        -0.9999983906745911,
        -0.6260128617286682
      ],
      "type": "VEC3"
    },
    {
      "bufferView": 1,
      "byteOffset": 490960,
      "componentType": 5126,
      "count": 348,
      "max": [
        0.7816789746284485,
        0.9760940074920654
      ],
      "min": [
        0.6952790021896362,
        0.74549400806427
      ],
      "type": "VEC2"
    },
    {
      "bufferView": 0,
      "byteOffset": 239232,
      "componentType": 5125,
      "count": 1728,
      "type": "SCALAR"
    },
    {
      "bufferView": 2,
      "byteOffset": 501360,
      "componentType": 5126,
      "count": 1455,
      "max": [
        119.42438507080078,
        94.25357818603516,
        112.81903076171875
      ],
      "min": [
        -80.40892791748047,
        -93.28294372558594,
        -0.7167246341705322
      ],
      "type": "VEC3"
    },
    {
      "bufferView": 2,
      "byteOffset": 518820,
      "componentType": 5126,
      "count": 1455,
      "max": [
        0.9997979402542114,
        0.999890148639679,
        0.9998958706855774
      ],
      "min": [
        -0.9970341324806213,
        -0.999850869178772,
        -0.9967438578605652
      ],
      "type": "VEC3"
    },
    {
      "bufferView": 1,
      "byteOffset": 493744,
      "componentType": 5126,
      "count": 1455,
      "max": [
        1.0,
        0.9897524118423462
      ],
      "min": [
        0.0,
        -4.905845423907457e-17
      ],
      "type": "VEC2"
    },
    {
      "bufferView": 0,
      "byteOffset": 246144,
      "componentType": 5125,
      "count": 5931,
      "type": "SCALAR"
    }
  ],
  "asset": {
    "extras": {
      "author": "SrMonteiro (https://sketchfab.com/crispimrafael)",
      "license": "CC-BY-4.0 (http://creativecommons.org/licenses/by/4.0/)",
      "source": "https://sketchfab.com/3d-models/guilherme-suite-3ddc6262560a4d01bc4d589044e4d758",
      "title": "Guilherme - Suite"
    },
    "generator": "Sketchfab-15.95.0",
    "version": "2.0"
  },
  "bufferViews": [
    {
      "buffer": 0,
      "byteLength": 269868,
      "name": "floatBufferViews",
      "target": 34963
    },
    {
      "buffer": 0,
      "byteLength": 505384,
      "byteOffset": 269868,
      "byteStride": 8,
      "name": "floatBufferViews",
      "target": 34962
    },
    {
      "buffer": 0,
      "byteLength": 536280,
      "byteOffset": 775252,
      "byteStride": 12,
      "name": "floatBufferViews",
      "target": 34962
    }
  ],
  "buffers": [
    {
      "byteLength": 1311532,
      "uri": "scene.bin"
    }
  ],
  "extensionsUsed": [
    "KHR_materials_specular",
    "KHR_materials_emissive_strength"
  ],
  "images": [
    {
      "uri": "textures/Material_2146804728_baseColor.jpeg"
    },
    {
      "uri": "textures/Material_2146804523_baseColor.jpeg"
    }
  ],
  "materials": [
    {
      "name": "Material_2146804728",
      "pbrMetallicRoughness": {
        "baseColorTexture": {
          "index": 0
        },
        "metallicFactor": 0.0,
        "roughnessFactor": 0.6
      }
    },
    {
      "name": "Material_51651561",
      "pbrMetallicRoughness": {
        "metallicFactor": 0.0,
        "roughnessFactor": 0.6
      }
    },
    {
      "name": "Material_32",
      "pbrMetallicRoughness": {
        "roughnessFactor": 0.13257183259987076
      }
    },
    {
      "extensions": {
        "KHR_materials_specular": {
          "specularColorFactor": [
            1.0,
            1.0,
            1.0
          ],
          "specularFactor": 0.4556204361765674
        }
      },
      "name": "Material_59",
      "pbrMetallicRoughness": {
        "roughnessFactor": 0.12038131925735392
      }
    },
    {
      "doubleSided": true,
      "emissiveFactor": [
        1.0,
        1.0,
        1.0
      ],
      "extensions": {
        "KHR_materials_emissive_strength": {
          "emissiveStrength": 10.0
        }
      },
      "name": "Material_2146802824",
      "pbrMetallicRoughness": {
        "metallicFactor": 0.0,
        "roughnessFactor": 0.6
      }
    },
    {
      "doubleSided": true,
      "name": "Material_2146802870",
      "pbrMetallicRoughness": {
        "metallicFactor": 0.0,
        "roughnessFactor": 0.6
      }
    },
    {
      "doubleSided": true,
      "name": "Material_2146804523",
      "pbrMetallicRoughness": {
        "baseColorTexture": {
          "index": 1
        },
        "metallicFactor": 0.0,
        "roughnessFactor": 0.6
      }
    }
  ],
  "meshes": [
    {
      "name": "Line001_Material #2146804728_0",
      "primitives": [
        {
          "attributes": {
            "NORMAL": 1,
            "POSITION": 0,
            "TEXCOORD_0": 2,
            "TEXCOORD_1": 3,
            "TEXCOORD_2": 4
          },
          "indices": 5,
          "material": 0,
          "mode": 4
        }
      ]
    },
    {
      "name": "Object028_Material 51651561_0",
      "primitives": [
        {
          "attributes": {
            "NORMAL": 7,
            "POSITION": 6,
            "TEXCOORD_0": 8
          },
          "indices": 9,
          "material": 1,
          "mode": 4
        }
      ]
    },
    {
      "name": "Object029_Material #32_0",
      "primitives": [
        {
          "attributes": {
            "NORMAL": 11,
            "POSITION": 10,
            "TEXCOORD_0": 12
          },
          "indices": 13,
          "material": 2,
          "mode": 4
        }
      ]
    },
    {
      "name": "Object030_Material #59_0",
      "primitives": [
        {
          "attributes": {
            "NORMAL": 15,
            "POSITION": 14,
            "TEXCOORD_0": 16
          },
          "indices": 17,
          "material": 3,
          "mode": 4
        }
      ]
    },
    {
      "name": "Object050_Material #2146802824_0",
      "primitives": [
        {
          "attributes": {
            "NORMAL": 19,
            "POSITION": 18,
            "TEXCOORD_0": 20
          },
          "indices": 21,
          "material": 4,
          "mode": 4
        }
      ]
    },
    {
      "name": "Object367_Material #2146802870_0",
      "primitives": [
        {
          "attributes": {
            "NORMAL": 23,
            "POSITION": 22,
            "TEXCOORD_0": 24
          },
          "indices": 25,
          "material": 5,
          "mode": 4
        }
      ]
    },
    {
      "name": "Box006_Material #2146804523_0",
      "primitives": [
        {
          "attributes": {
            "NORMAL": 27,
            "POSITION": 26,
            "TEXCOORD_0": 28
          },
          "indices": 29,
          "material": 6,
          "mode": 4
        }
      ]
    }
  ],
  "nodes": [
    {
      "children": [
        1
      ],
      "matrix": [
        1.0,
        0.0,
        0.0,
        0.0,
        0.0,
        2.220446049250313e-16,
        -1.0,
        0.0,
        0.0,
        1.0,
        2.220446049250313e-16,
        0.0,
        0.0,
        0.0,
        0.0,
        1.0
      ],
      "name": "Sketchfab_model"
    },
    {
      "children": [
        2
      ],
      "matrix": [
        0.009999999776482582,
        0.0,
        0.0,
        0.0,
        0.0,
        0.0,
        0.009999999776482582,
        0.0,
        0.0,
        -0.009999999776482582,
        0.0,
        0.0,
        0.0,
        0.0,
        0.0,
        1.0
      ],
      "name": "f984a86f4ead4f5ea16fbda5bd4203f5.fbx"
    },
    {
      "children": [
        3,
        6,
        9,
        12,
        15,
        18,
        21
      ],
      "name": "RootNode"
    },
    {
      "children": [
        4
      ],
      "matrix": [
        1.0,
        0.0,
        0.0,
        0.0,
        0.0,
        2.220446049250313e-16,
        -1.0,
        0.0,
        0.0,
        1.0,
        2.220446049250313e-16,
        0.0,
        61503.84375,
        139.00039672851563,
        -21178.0625,
        1.0
      ],
      "name": "Line001"
    },
    {
      "children": [
        5
      ],
      "matrix": [
        1.0,
        0.0,
        -0.0,
        0.0,
        0.0,
        1.0,
        0.0,
        0.0,
        0.0,
        0.0,
        1.0,
        0.0,
        -81.19921875,
        -107.15234375,
        -139.00039672851563,
        1.0
      ],
      "name": "Object_4"
    },
    {
      "mesh": 0,
      "name": "Line001_Material #2146804728_0"
    },
    {
      "children": [
        7
      ],
      "matrix": [
        1.0,
        0.0,
        0.0,
        0.0,
        0.0,
        2.220446049250313e-16,
        -1.0,
        0.0,
        0.0,
        1.0,
        2.220446049250313e-16,
        0.0,
        61539.703125,
        170.0,
        -21482.16015625,
        1.0
      ],
      "name": "Object028"
    },
    {
      "children": [
        8
      ],
      "matrix": [
        1.0,
        0.0,
        -0.0,
        0.0,
        0.0,
        1.0,
        0.0,
        0.0,
        0.0,
        0.0,
        1.0,
        0.0,
        0.0,
        -3.5,
        -70.0,
        1.0
      ],
      "name": "Object_7"
    },
    {
      "mesh": 1,
      "name": "Object028_Material 51651561_0"
    },
    {
      "children": [
        10
      ],
      "matrix": [
        1.0,
        0.0,
        0.0,
        0.0,
        0.0,
        2.220446049250313e-16,
        -1.0,
        0.0,
        0.0,
        1.0,
        2.220446049250313e-16,
        0.0,
        61597.171875,
        138.5,
        -21081.564453125,
        1.0
      ],
      "name": "Object029"
    },
    {
      "children": [
        11
      ],
      "matrix": [
        1.0,
        0.0,
        -0.0,
        0.0,
        0.0,
        1.0,
        0.0,
        0.0,
        0.0,
        0.0,
        1.0,
        0.0,
        0.0,
        -27.404296875,
        -138.5,
        1.0
      ],
      "name": "Object_10"
    },
    {
      "mesh": 2,
      "name": "Object029_Material #32_0"
    },
    {
      "children": [
        13
      ],
      "matrix": [
        1.0,
        0.0,
        0.0,
        0.0,
        0.0,
        2.220446049250313e-16,
        -1.0,
        0.0,
        0.0,
        1.0,
        2.220446049250313e-16,
        0.0,
        61345.25,
        144.654052734375,
        -21394.4453125,
        1.0
      ],
      "name": "Object030"
    },
    {
      "children": [
        14
      ],
      "matrix": [
        1.0,
        0.0,
        -0.0,
        0.0,
        0.0,
        1.0,
        0.0,
        0.0,
        0.0,
        0.0,
        1.0,
        0.0,
        77.39453125,
        -323.53515625,
        -144.654052734375,
        1.0
      ],
      "name": "Object_13"
    },
    {
      "mesh": 3,
      "name": "Object030_Material #59_0"
    },
    {
      "children": [
        16
      ],
      "matrix": [
        1.0,
        0.0,
        0.0,
        0.0,
        0.0,
        2.220446049250313e-16,
        -1.0,
        0.0,
        0.0,
        1.0,
        2.220446049250313e-16,
        0.0,
        61539.6953125,
        274.3398132324219,
        -21165.41015625,
        1.0
      ],
      "name": "Object050"
    },
    {
      "children": [
        17
      ],
      "matrix": [
        1.0,
        0.0,
        -0.0,
        0.0,
        0.0,
        1.0,
        0.0,
        0.0,
        0.0,
        0.0,
        1.0,
        0.0,
        -275.50390625,
        225.767578125,
        0.659820556640625,
        1.0
      ],
      "name": "Object_16"
    },
    {
      "mesh": 4,
      "name": "Object050_Material #2146802824_0"
    },
    {
      "children": [
        19
      ],
      "matrix": [
        0.8363410234451294,
        0.0,
        0.0,
        0.0,
        0.0,
        1.857050121334701e-16,
        -0.8363410234451294,
        0.0,
        0.0,
        0.6661049723625183,
        1.4790501542683428e-16,
        0.0,
        61701.8046875,
        101.17092895507813,
        -21291.9921875,
        1.0
      ],
      "name": "Object367"
    },
    {
      "children": [
        20
      ],
      "matrix": [
        1.0,
        0.0,
        -0.0,
        0.0,
        0.0,
        1.0,
        0.0,
        0.0,
        0.0,
        0.0,
        1.0,
        0.0,
        -70.4286117553711,
        240.5240478515625,
        -116.08329772949219,
        1.0
      ],
      "name": "Object_19"
    },
    {
      "mesh": 5,
      "name": "Object367_Material #2146802870_0"
    },
    {
      "children": [
        22
      ],
      "matrix": [
        1.0320210456848145,
        0.0,
        0.0,
        0.0,
        0.0,
        2.7337821613021053e-16,
        -1.231186032295227,
        0.0,
        0.0,
        1.0,
        2.220446049250313e-16,
        0.0,
        61606.953125,
        0.0,
        -21290.302734375,
        1.0
      ],
      "name": "Box006"
    },
    {
      "mesh": 6,
      "name": "Box006_Material #2146804523_0"
    }
  ],
  "samplers": [
    {
      "magFilter": 9729,
      "minFilter": 9987,
      "wrapS": 10497,
      "wrapT": 10497
    }
  ],
  "scene": 0,
  "scenes": [
    {
      "name": "Sketchfab_Scene",
      "nodes": [
        0
      ]
    }
  ],
  "textures": [
    {
      "sampler": 0,
      "source": 0
    },
    {
      "sampler": 0,
      "source": 1
    }
  ]
}
